<svg width="228" height="49" viewBox="0 0 228 49" fill="none" xmlns="http://www.w3.org/2000/svg">
<path fill-rule="evenodd" clip-rule="evenodd" d="M20.3867 18.3439C21.0713 18.4961 21.7559 18.6482 22.3645 18.8003C25.103 19.485 26.4722 20.4739 26.4722 21.691C26.4722 22.6038 25.6355 23.4406 23.8859 24.1252V42.7623H20.3106V26.4073L13.16 36.2964L6.31377 26.4073V42.7623H2.89063V24.2774C0.988886 23.5927 -2.09808e-05 22.6799 -2.09808e-05 21.691C-2.09808e-05 20.5499 1.36923 19.561 4.10774 18.8003C4.7163 18.6482 5.32486 18.4961 6.00949 18.42L6.08556 18.2678L10.3455 6.55311C11.4104 3.73853 12.9318 2.06499 15.2139 1.38036C17.1917 0.771807 19.5499 0.923946 22.0602 1.15215H22.1363C22.5166 1.22822 22.6688 1.5325 22.6688 1.76071C22.6688 1.91285 22.5927 2.2932 22.1363 2.36927C22.0602 2.44534 21.9841 2.44534 21.832 2.44534L21.804 2.45C20.8719 2.60522 18.5518 2.99159 17.6482 4.34708C17.2678 4.95564 17.1917 5.64027 17.3439 6.47704C17.971 9.48733 18.7016 12.084 19.2798 14.1391L19.2802 14.1406C19.4032 14.5777 19.5192 14.9903 19.626 15.3772C20.0824 16.8225 20.3106 17.6593 20.3867 18.1918V18.3439L20.3867 18.3439ZM9.43263 25.4945L13.3122 31.1997L17.3439 25.4945C16.0507 25.5705 14.6054 25.6466 13.2361 25.6466C11.9429 25.6466 10.6497 25.5705 9.43263 25.4945ZM11.943 16.3661H13.2361C13.3856 16.3661 13.535 16.3743 13.6871 16.3826C13.9995 16.3996 14.3233 16.4173 14.6815 16.3661C14.8336 16.3661 14.8336 16.3661 14.8336 16.214C14.8336 15.9858 14.7575 15.6815 14.6815 15.4533L14.4532 14.5404C14.3011 14.1601 14.225 13.7797 14.149 13.3994L14.149 13.3994C14.149 13.3233 14.149 13.2472 14.225 13.1712C14.9857 12.6387 15.0618 11.6498 14.6054 11.0412C14.3772 10.7369 14.0729 10.5087 13.6926 10.4327C13.3122 10.3566 13.0079 10.3566 12.7036 10.5087C12.3233 10.7369 12.019 11.0412 11.8669 11.4216C11.7908 11.7258 11.7908 12.1062 11.8669 12.4105C11.943 12.7148 12.1712 12.943 12.4754 13.1712C12.5515 13.2472 12.5515 13.2472 12.5515 13.3233C12.5515 13.3994 12.5325 13.4564 12.5135 13.5135C12.4945 13.5705 12.4754 13.6276 12.4754 13.7037C12.3994 13.9319 12.3233 14.2361 12.2472 14.5404L12.2472 14.5404C12.1712 14.7686 12.0951 15.0729 12.019 15.3772L12.019 15.3772C11.981 15.5293 11.943 15.6624 11.9049 15.7955L11.9049 15.7956L11.9049 15.7956C11.8669 15.9287 11.8288 16.0618 11.7908 16.214C11.7908 16.29 11.7908 16.3281 11.8098 16.3471C11.8288 16.3661 11.8669 16.3661 11.943 16.3661ZM167 49V17H168V49H167ZM192.585 40H197.315C200.409 40 201.688 38.4915 201.688 36.5227C201.688 34.4517 200.256 33.3267 199.054 33.25V33.1222C200.179 32.8154 201.176 32.0739 201.176 30.3864C201.176 28.4688 199.898 26.9091 197.162 26.9091H192.585V40ZM194.17 38.5938V34.0426H197.392C199.105 34.0426 200.179 35.1932 200.179 36.5227C200.179 37.6733 199.386 38.5938 197.315 38.5938H194.17ZM194.17 32.6619V28.3154H197.162C198.901 28.3154 199.668 29.2358 199.668 30.3864C199.668 31.7671 198.543 32.6619 197.111 32.6619H194.17ZM205.596 26.9091H204.088V40H205.596V26.9091ZM212.348 40.2046C215.007 40.2046 216.797 38.1847 216.797 35.1421C216.797 32.0739 215.007 30.054 212.348 30.054C209.689 30.054 207.899 32.0739 207.899 35.1421C207.899 38.1847 209.689 40.2046 212.348 40.2046ZM212.348 38.8494C210.328 38.8494 209.407 37.1108 209.407 35.1421C209.407 33.1733 210.328 31.4091 212.348 31.4091C214.368 31.4091 215.288 33.1733 215.288 35.1421C215.288 37.1108 214.368 38.8494 212.348 38.8494ZM223.062 43.8864C225.415 43.8864 227.307 42.8125 227.307 40.2813V30.1818H225.849V31.7415H225.696C225.676 31.7113 225.656 31.6788 225.634 31.6443L225.631 31.6396L225.63 31.6386L225.629 31.6361C225.28 31.0851 224.628 30.054 222.832 30.054C220.352 30.054 218.639 32.0227 218.639 35.0398C218.639 38.108 220.429 39.8466 222.807 39.8466C224.651 39.8466 225.289 38.8062 225.631 38.2489L225.67 38.1847H225.798V40.179C225.798 41.8154 224.648 42.5568 223.062 42.5568C221.343 42.5568 220.699 41.6829 220.294 41.1333L220.25 41.0739L219.048 41.9176C219.662 42.9467 220.87 43.8864 223.062 43.8864ZM223.011 38.4915C221.119 38.4915 220.148 37.0597 220.148 35.0142C220.148 33.0199 221.094 31.4091 223.011 31.4091C224.852 31.4091 225.824 32.8921 225.824 35.0142C225.824 37.1875 224.827 38.4915 223.011 38.4915ZM29.8954 41.0127C31.1886 42.458 33.1664 43.2187 35.7528 43.2187C38.2631 43.2187 40.1648 42.458 41.5341 41.0127C42.8273 39.5674 43.5119 37.4374 43.5119 34.6989C43.5119 32.8732 43.2076 31.3518 42.6751 30.0587C42.1426 28.7655 41.2298 27.8526 40.0888 27.168C38.9477 26.4834 37.4263 26.1791 35.6767 26.1791C33.1664 26.1791 31.2647 26.8637 29.9715 28.233C28.6783 29.6022 27.9937 31.8083 27.9937 34.6989C27.9937 37.4374 28.6022 39.5674 29.8954 41.0127ZM38.3392 39.5674C37.7306 40.0999 36.8178 40.3281 35.7528 40.3281C34.1553 40.3281 33.0143 39.8716 32.3296 38.8067C31.645 37.8178 31.3407 36.3724 31.3407 34.6228C31.3407 33.4057 31.4168 32.4168 31.7211 31.58C31.9493 30.7433 32.4818 30.1347 33.0903 29.6783C33.775 29.2219 34.6117 28.9937 35.6767 28.9937C36.7417 28.9937 37.6545 29.1458 38.2631 29.6022C38.9477 30.0587 39.4041 30.6672 39.7084 31.504C40.0127 32.3407 40.1648 33.4057 40.1648 34.6228C40.1648 35.7639 40.0127 36.7528 39.7084 37.5896C39.4802 38.4263 38.9477 39.1109 38.3392 39.5674ZM48.3043 43.2948C48.3043 43.9033 48.2282 44.4358 48.0761 44.8923C47.9239 45.3487 47.6197 45.6529 47.1632 45.8051C46.7068 46.0333 46.0983 46.1094 45.3376 46.1094V49C46.6307 49 47.7718 48.8479 48.7607 48.4675C49.7496 48.0872 50.4342 47.4786 50.9667 46.6419C51.4992 45.8051 51.7274 44.7401 51.7274 43.3709V26.6355H48.3804V43.2948H48.3043ZM57.6609 41.0127C58.9541 42.458 60.9319 43.2187 63.5182 43.2187C66.0285 43.2187 67.9303 42.458 69.2995 41.0127C70.5927 39.5674 71.2774 37.4374 71.2774 34.6989C71.2774 32.8732 70.9731 31.3518 70.4406 30.0587C69.9081 28.7655 68.9953 27.8526 67.8542 27.168C66.7132 26.4834 65.1918 26.1791 63.4422 26.1791C60.9319 26.1791 59.0301 26.8637 57.7369 28.233C56.4438 29.6022 55.7591 31.8083 55.7591 34.6989C55.7591 37.4374 56.3677 39.5674 57.6609 41.0127ZM66.0285 39.5674C65.42 40.0999 64.5071 40.3281 63.4422 40.3281C61.9208 40.3281 60.7797 39.8716 60.019 38.8067C59.3344 37.8178 59.0301 36.3724 59.0301 34.6228C59.0301 33.4057 59.1062 32.4168 59.4105 31.58C59.6387 30.7433 60.1712 30.1347 60.7797 29.6783C61.4644 29.2219 62.3011 28.9937 63.3661 28.9937C64.4311 28.9937 65.3439 29.1458 65.9525 29.6022C66.6371 30.0587 67.0935 30.6672 67.3978 31.504C67.7021 32.3407 67.8542 33.4057 67.8542 34.6228C67.8542 35.7639 67.7021 36.7528 67.3978 37.5896C67.1696 38.4263 66.6371 39.1109 66.0285 39.5674ZM85.5024 21.2346H81.6989L73.3312 42.6862H76.9065L79.0365 36.8289H87.7845L89.9144 42.6862H93.6419L85.5024 21.2346ZM80.1014 34.0143L83.4485 24.8098L86.7956 34.0143H80.1014ZM99.9557 42.458C101.021 42.9905 102.314 43.2187 103.759 43.2187C105.965 43.2187 107.715 42.6862 108.932 41.6213C110.149 40.5563 110.758 38.8827 110.758 36.7528V26.5594H107.487V36.2203C107.487 37.5896 107.182 38.5785 106.574 39.2631C105.965 39.9477 105.052 40.252 103.759 40.252C102.542 40.252 101.553 39.9477 100.945 39.2631C100.336 38.5785 100.032 37.5896 100.032 36.2203V26.5594H96.6847V36.6767C96.6847 38.046 96.9129 39.2631 97.5214 40.252C98.0539 41.2409 98.8907 42.0016 99.9557 42.458ZM121.331 43.1426C119.886 43.1426 118.745 42.7623 117.832 42.0016C116.995 41.2409 116.539 40.0999 116.539 38.5785V29.374H113.952V26.5594H116.539V22.0713H120.038V26.5594H123.994V29.374H120.038V37.8938C120.038 38.6545 120.19 39.187 120.418 39.5674C120.723 39.9477 121.179 40.0999 121.94 40.0999C122.32 40.0999 122.7 40.0238 123.005 39.9477C123.385 39.8716 123.689 39.7195 123.918 39.5674V42.5341C123.537 42.6862 123.081 42.8384 122.624 42.9144C122.244 43.1426 121.788 43.1426 121.331 43.1426ZM142.25 42.7623V32.7211C142.25 31.1997 141.946 29.9065 141.642 28.9176C141.109 27.9287 140.425 27.2441 139.512 26.7876C138.599 26.4073 137.534 26.1791 136.241 26.1791C135.252 26.1791 134.263 26.3312 133.274 26.7116C132.59 26.9398 131.981 27.2441 131.449 27.5483V19.7132H128.101V42.7623H131.449V30.2108C131.888 29.9596 132.431 29.7603 132.95 29.5701C133.059 29.5298 133.168 29.4899 133.274 29.4501C133.959 29.2219 134.643 29.1458 135.252 29.1458C136.469 29.1458 137.382 29.4501 137.991 30.1347C138.599 30.8954 138.903 31.8843 138.903 33.1775V42.7623H142.25ZM51.9557 21.9953C51.9557 23.0036 51.1383 23.8209 50.13 23.8209C49.1217 23.8209 48.3043 23.0036 48.3043 21.9953C48.3043 20.987 49.1217 20.1696 50.13 20.1696C51.1383 20.1696 51.9557 20.987 51.9557 21.9953Z" fill="#202124"/>
</svg>
